<?xml version="1.0" encoding="UTF-8"?>
<svg version="1.1" xmlns="http://www.w3.org/2000/svg" width="236" height="130">
<path d="M0 0 C77.88 0 155.76 0 236 0 C236 42.9 236 85.8 236 130 C158.12 130 80.24 130 0 130 C0 87.1 0 44.2 0 0 Z " fill="#F6F5F5" transform="translate(0,0)"/>
<path d="M0 0 C2.97 0.495 2.97 0.495 6 1 C6 2.32 6 3.64 6 5 C5.34 5 4.68 5 4 5 C4 5.66 4 6.32 4 7 C5.00804688 7.23976563 6.01609375 7.47953125 7.0546875 7.7265625 C11.2394918 8.9249287 14.53588306 10.96122025 18.125 13.375 C18.71925781 13.76171875 19.31351562 14.1484375 19.92578125 14.546875 C22.64781484 16.33752845 25.20886353 18.16959004 27.7421875 20.2265625 C29.96052664 22.17424078 29.96052664 22.17424078 33 23 C33.6875 25.0625 33.6875 25.0625 34 27 C29.85805924 26.3131455 26.48122671 24.14853402 22.875 22.125 C11.0928344 15.74770499 -0.0531102 12.55136739 -13.5703125 15.87890625 C-23.86441828 19.49736803 -31.14347127 25.17717241 -36 35 C-39.11124639 42.69452761 -39.37224394 49.91234146 -39.1875 58.125 C-39.125625 62.04375 -39.06375 65.9625 -39 70 C-52.86 70 -66.72 70 -81 70 C-79.3501133 53.50113298 -72.73365135 38.67405972 -62 26 C-61.29423828 25.09507813 -61.29423828 25.09507813 -60.57421875 24.171875 C-52.25302545 13.76452338 -39.3340711 4.24752757 -26 2 C-17.13311563 1.34280739 -8.68653401 2.21814687 0 4 C0 2.68 0 1.36 0 0 Z " fill="#C60404" transform="translate(101,36)"/>
<path d="M0 0 C5.506875 -0.12375 5.506875 -0.12375 11.125 -0.25 C12.2711377 -0.28641602 13.41727539 -0.32283203 14.59814453 -0.36035156 C20.70198216 -0.42670926 24.46130922 -0.25595266 29 4 C32.09176971 8.39120916 31.74076427 13.8665036 31 19 C29.62668316 21.77304362 28.40750851 22.92842291 26 25 C25.01 25 24.02 25 23 25 C23.70576172 25.79664063 23.70576172 25.79664063 24.42578125 26.609375 C25.04839844 27.31578125 25.67101562 28.0221875 26.3125 28.75 C26.92738281 29.44609375 27.54226562 30.1421875 28.17578125 30.859375 C29.87314734 32.85114506 31.45477809 34.88898915 33 37 C19.68548842 37.91473744 19.68548842 37.91473744 15.66796875 35.734375 C13.60258813 33.66396912 12 32.03161483 12 29 C11.34 29 10.68 29 10 29 C10 31.97 10 34.94 10 38 C6.7 38 3.4 38 0 38 C0 25.46 0 12.92 0 0 Z " fill="#C70B0B" transform="translate(83,68)"/>
<path d="M0 0 C0.69544922 -0.03738281 1.39089844 -0.07476562 2.10742188 -0.11328125 C6.58837831 -0.18859144 10.4519947 0.39082931 14.01538086 3.25292969 C17.19163122 8.44923463 15.98563088 15.7992684 15.75 21.6875 C15.71486712 23.20630889 15.68293152 24.72519533 15.65429688 26.24414062 C15.57736369 29.95604392 15.4566903 33.6650311 15.3125 37.375 C12.3425 37.375 9.3725 37.375 6.3125 37.375 C6.3125 35.395 6.3125 33.415 6.3125 31.375 C3.0125 31.375 -0.2875 31.375 -3.6875 31.375 C-3.6875 33.355 -3.6875 35.335 -3.6875 37.375 C-6.9875 37.375 -10.2875 37.375 -13.6875 37.375 C-13.7867011 33.05173967 -13.85912265 28.72908976 -13.90722656 24.4050293 C-13.92728825 22.93551079 -13.95454478 21.46607159 -13.98925781 19.99682617 C-14.03802141 17.87919513 -14.06052161 15.76262313 -14.078125 13.64453125 C-14.09907227 12.37198486 -14.12001953 11.09943848 -14.14160156 9.78833008 C-13.61069536 5.79768512 -12.49821513 4.19584207 -9.6875 1.375 C-6.60309675 -0.16720162 -3.3833929 0.0671187 0 0 Z " fill="#C70808" transform="translate(133.6875,67.625)"/>
<path d="M0 0 C0.89589844 0.00322266 1.79179687 0.00644531 2.71484375 0.00976562 C4.12056641 0.02233398 4.12056641 0.02233398 5.5546875 0.03515625 C6.49957031 0.03966797 7.44445312 0.04417969 8.41796875 0.04882812 C10.7552352 0.0606325 13.09246919 0.07856826 15.4296875 0.09765625 C15.4296875 3.39765625 15.4296875 6.69765625 15.4296875 10.09765625 C9.4896875 10.09765625 3.5496875 10.09765625 -2.5703125 10.09765625 C-2.5703125 11.41765625 -2.5703125 12.73765625 -2.5703125 14.09765625 C-1.83425781 14.06285156 -1.09820312 14.02804688 -0.33984375 13.9921875 C9.42798223 13.72121743 9.42798223 13.72121743 13.4296875 17.09765625 C13.95691406 17.51660156 14.48414063 17.93554688 15.02734375 18.3671875 C17.47714064 21.39019592 16.88691345 24.68777091 16.79296875 28.42578125 C16.31171341 31.96533667 15.08910257 33.75111354 12.4296875 36.09765625 C9.97693609 37.32403195 8.3791094 37.21180939 5.640625 37.1953125 C4.69960937 37.19208984 3.75859375 37.18886719 2.7890625 37.18554688 C1.80421875 37.17716797 0.819375 37.16878906 -0.1953125 37.16015625 C-1.68417969 37.15338867 -1.68417969 37.15338867 -3.203125 37.14648438 C-5.6589141 37.1346777 -8.11458354 37.11821025 -10.5703125 37.09765625 C-10.5703125 34.12765625 -10.5703125 31.15765625 -10.5703125 28.09765625 C-4.9603125 28.09765625 0.6496875 28.09765625 6.4296875 28.09765625 C6.4296875 26.44765625 6.4296875 24.79765625 6.4296875 23.09765625 C5.30820313 23.13246094 5.30820313 23.13246094 4.1640625 23.16796875 C3.17921875 23.18601562 2.194375 23.2040625 1.1796875 23.22265625 C0.20515625 23.24585937 -0.769375 23.2690625 -1.7734375 23.29296875 C-4.63309518 23.09327198 -6.17806842 22.63018761 -8.5703125 21.09765625 C-11.68877178 17.42232925 -12.14032234 13.98992826 -12 9.3203125 C-11.26418596 5.51414716 -9.34577009 3.74094919 -6.5703125 1.09765625 C-4.16971433 -0.10264283 -2.67670601 -0.01694118 0 0 Z " fill="#C80F0F" transform="translate(208.5703125,67.90234375)"/>
<path d="M0 0 C3.63 0 7.26 0 11 0 C11 9.24 11 18.48 11 28 C15.62 28 20.24 28 25 28 C25 31.3 25 34.6 25 38 C16.75 38 8.5 38 0 38 C0 25.46 0 12.92 0 0 Z " fill="#C81212" transform="translate(169,68)"/>
<path d="M0 0 C3.63 0 7.26 0 11 0 C11 12.54 11 25.08 11 38 C7.37 38 3.74 38 0 38 C0 25.46 0 12.92 0 0 Z " fill="#C91818" transform="translate(154,68)"/>
<path d="M0 0 C0.33 0 0.66 0 1 0 C1.495 9.405 1.495 9.405 2 19 C-11.86 19 -25.72 19 -40 19 C-40 17.35 -40 15.7 -40 14 C-39.67 14.99 -39.34 15.98 -39 17 C-26.13 17 -13.26 17 0 17 C0 11.39 0 5.78 0 0 Z " fill="#D35454" transform="translate(60,87)"/>
<path d="M0 0 C2.05078125 0.03255208 4.1015625 0.06510417 6.15234375 0.09765625 C6.15234375 3.72765625 6.15234375 7.35765625 6.15234375 11.09765625 C3.18234375 11.09765625 0.21234375 11.09765625 -2.84765625 11.09765625 C-2.87453776 9.45191059 -2.89399748 7.80604212 -2.91015625 6.16015625 C-2.92175781 5.24363281 -2.93335938 4.32710938 -2.9453125 3.3828125 C-2.82618856 0.59531224 -2.79215837 0.14757708 0 0 Z " fill="#F4EDED" transform="translate(132.84765625,76.90234375)"/>
<path d="M0 0 C6.8359375 -0.1953125 6.8359375 -0.1953125 9 0 C11 2 11 2 11.25 4.5 C11 7 11 7 9 9 C5.98173347 9.27240673 3.03629378 9.08675125 0 9 C0 6.03 0 3.06 0 0 Z " fill="#F0DBDB" transform="translate(93,77)"/>
<path d="M0 0 C0.66 0.33 1.32 0.66 2 1 C1.34 1.66 0.68 2.32 0 3 C0.99 4.485 0.99 4.485 2 6 C1.8125 8.125 1.8125 8.125 1 10 C0.01 10.33 -0.98 10.66 -2 11 C-2 10.34 -2 9.68 -2 9 C-4.16874252 9.50603992 -5.99967627 9.99983813 -8 11 C-6.52670958 5.99081256 -3.72484762 3.48192278 0 0 Z " fill="#ECC7C7" transform="translate(75,57)"/>
<path d="M0 0 C1.65 0.33 3.3 0.66 5 1 C5.93423645 4.01031744 6.04449911 4.86650268 5 8 C3.35 7.67 1.7 7.34 0 7 C-1.04449911 3.86650268 -0.93423645 3.01031744 0 0 Z " fill="#CA1E1E" transform="translate(18,78)"/>
<path d="M0 0 C2.475 0.495 2.475 0.495 5 1 C5.33 2.98 5.66 4.96 6 7 C3.03 6.505 3.03 6.505 0 6 C0 4.02 0 2.04 0 0 Z " fill="#C71212" transform="translate(64,96)"/>
<path d="M0 0 C2.97 0.495 2.97 0.495 6 1 C6 2.32 6 3.64 6 5 C3.6875 5.625 3.6875 5.625 1 6 C0.01 5.34 -0.98 4.68 -2 4 C-1.34 4 -0.68 4 0 4 C0 2.68 0 1.36 0 0 Z " fill="#D97272" transform="translate(101,36)"/>
<path d="M0 0 C1.98 0.495 1.98 0.495 4 1 C3.67 2.98 3.34 4.96 3 7 C1.68 6.34 0.36 5.68 -1 5 C-0.67 3.35 -0.34 1.7 0 0 Z " fill="#CA2323" transform="translate(65,77)"/>
<path d="M0 0 C1.32 0.66 2.64 1.32 4 2 C3.34 3.32 2.68 4.64 2 6 C0.68 5.67 -0.64 5.34 -2 5 C-1.125 1.125 -1.125 1.125 0 0 Z " fill="#C91C1C" transform="translate(36,54)"/>
<path d="M0 0 C0.33 0.66 0.66 1.32 1 2 C1.99 2.33 2.98 2.66 4 3 C3.34 3 2.68 3 2 3 C1.67 4.65 1.34 6.3 1 8 C0.34 8 -0.32 8 -1 8 C-1.33 8.99 -1.66 9.98 -2 11 C-1.125 3.375 -1.125 3.375 0 0 Z " fill="#EBCACA" transform="translate(63,74)"/>
<path d="M0 0 C1.65 0 3.3 0 5 0 C5.33 1.32 5.66 2.64 6 4 C4.02 4 2.04 4 0 4 C0 2.68 0 1.36 0 0 Z " fill="#D35757" transform="translate(101,52)"/>
<path d="M0 0 C0.99 0.33 1.98 0.66 3 1 C2.6875 2.9375 2.6875 2.9375 2 5 C1.01 5.33 0.02 5.66 -1 6 C-1.625 4.125 -1.625 4.125 -2 2 C-1.34 1.34 -0.68 0.68 0 0 Z " fill="#CD3636" transform="translate(74,62)"/>
<path d="M0 0 C1.65 0 3.3 0 5 0 C5.33 1.32 5.66 2.64 6 4 C4.35 4 2.7 4 1 4 C0.67 2.68 0.34 1.36 0 0 Z " fill="#D35858" transform="translate(77,32)"/>
<path d="M0 0 C0.99 0.33 1.98 0.66 3 1 C3 1.99 3 2.98 3 4 C1.68 4.33 0.36 4.66 -1 5 C-1.33 3.68 -1.66 2.36 -2 1 C-1.34 0.67 -0.68 0.34 0 0 Z " fill="#C81616" transform="translate(57,38)"/>
<path d="M0 0 C0.33 0.66 0.66 1.32 1 2 C1.66 2.33 2.32 2.66 3 3 C1.68 3.99 0.36 4.98 -1 6 C-2.32 5.34 -3.64 4.68 -5 4 C-4.360625 3.71125 -3.72125 3.4225 -3.0625 3.125 C-0.84793921 2.17176549 -0.84793921 2.17176549 0 0 Z " fill="#E7B1B1" transform="translate(40,56)"/>
<path d="M0 0 C2.475 0.495 2.475 0.495 5 1 C4.34 2.65 3.68 4.3 3 6 C2.01 6 1.02 6 0 6 C0 4.02 0 2.04 0 0 Z " fill="#EAC0C0" transform="translate(23,79)"/>
<path d="M0 0 C1.32 0 2.64 0 4 0 C3.67 1.32 3.34 2.64 3 4 C1.68 3.67 0.36 3.34 -1 3 C-0.67 2.01 -0.34 1.02 0 0 Z " fill="#CC2F2F" transform="translate(86,54)"/>
</svg>
